<svg width="51" height="52" viewBox="0 0 51 52" fill="none" xmlns="http://www.w3.org/2000/svg">
<path d="M14.5346 51.6965H7.84847C6.4182 51.6965 5.5092 50.5571 5.83231 49.1548L6.15325 47.703H10.6142C12.0488 47.703 13.492 46.5549 13.8065 45.1569L16.0984 35.2657C16.4215 33.8699 17.8561 32.7239 19.2863 32.7239H21.1883C29.3499 32.7239 35.6935 31.0459 40.2299 27.6835C44.7663 24.3211 47.0366 19.929 47.0366 14.4686C47.0366 12.0453 46.6166 10.0421 45.77 8.461C45.77 8.42654 45.7356 8.39423 45.7356 8.36191L46.0264 8.52347C47.6419 9.52509 48.8697 10.8153 49.7119 12.4309C50.5821 14.0464 51 16.0496 51 18.4427C51 23.9032 48.7404 28.2952 44.1847 31.6577C39.6612 34.9856 33.2961 36.6636 25.156 36.6636H23.2174C21.7958 36.6636 20.344 37.7945 20.0209 39.2183L17.7268 49.1376C17.4059 50.5269 15.9821 51.6578 14.5604 51.6578L14.5346 51.6965ZM8.76824 45.8914H2.08C0.651882 45.8914 -0.254962 44.752 0.0638336 43.3497L9.48337 2.54605C9.80863 1.13948 11.2389 0 12.6735 0H26.5992C29.6041 0 32.2191 0.211094 34.4571 0.622513C36.6865 1.02962 38.5928 1.74045 40.2385 2.75499C41.8239 3.75662 43.0861 5.06411 43.8939 6.67101C44.7318 8.28222 45.1518 10.2898 45.1518 12.6958C45.1518 18.1563 42.888 22.5483 38.3365 25.8763C33.8131 29.2387 27.4458 30.8865 19.3036 30.8865H17.4016C15.9799 30.8865 14.541 32.0152 14.2179 33.4046L11.9325 43.2894C11.6115 44.6809 10.1727 45.8139 8.73377 45.8139L8.76824 45.8914ZM24.8071 8.47823H22.6229C21.1883 8.47823 19.7538 9.61771 19.435 11.0157L17.4317 19.6748C17.1086 21.0706 18.0133 22.2144 19.435 22.2144H21.0849C24.6692 22.2144 27.4824 21.4756 29.4856 20.0152C31.4867 18.5375 32.4905 16.4524 32.4905 13.7427C32.4905 11.9548 31.8421 10.6301 30.5519 9.77926C29.2595 8.90904 27.3208 8.47608 24.7662 8.47608L24.8071 8.47823Z" fill="black"/>
</svg>
